<svg xmlns="http://www.w3.org/2000/svg" width="367.8" height="359.7" overflow="scroll"><style>.st0{fill:#fff}.st1{fill:red}</style><path class="st0" d="M191.8 155.3c-22-12.1-40.4-22.2-41-22.3-.5-.2-.9 17.8-.9 46.7 0 25.9.2 47.1.5 47.1.2 0 15.9-9.3 34.7-20.7 18.9-11.3 37.1-22.3 40.5-24.2 3.4-2 6.2-3.8 6.2-4.1 0-.3-18-10.4-40-22.5z"/><path class="st0" d="M209.8 88.8c-10.8-3.2-36.1-3.7-47.4-1.1-37.4 8.8-64.9 36.5-73.2 73.6-2 9.1-2 27.9 0 37 7.5 35 34.2 62.9 69.5 72.8 6.5 1.8 10.4 2.1 25.2 2.2 15.4 0 18.5-.3 25.4-2.3 46.2-13.4 75.2-54.8 70.5-100.8-3.9-38.3-31.3-70.3-70-81.4zm39.7 147.6c-12.5 13.8-26.1 21.8-45.6 27-10 2.7-30.9 2.4-42-.5-31.7-8.5-55.5-32.3-63.6-63.6-2.7-10.5-2.5-29.4.4-40.3 9.1-33.8 37.5-58.9 72.7-64.2 27.7-4.2 57.5 6.3 77 27.1 30.5 32.4 30.9 81.9 1.1 114.5z"/><path class="st1" d="M367 159.1c-6.5-53.3-35.7-99.5-81.8-129.7C266.3 17 244.8 8.3 220.9 3.3c-17.2-3.6-47.8-4.4-65-1.6C73.2 14.8 10.7 78.3.8 159.1c-1.6 13.7-.7 41.4 2 54.4 5.7 28.6 19.5 57.7 37.7 79.3 30.7 36.6 71.3 59 118.9 65.6 17.5 2.4 44.5 1.5 61.5-2.1 49.7-10.4 90.3-37.8 118.8-80.1 10.5-15.6 21.1-41.8 25.3-62.2 2.6-12.6 3.6-41.2 2-54.9zM209.3 271c-6.9 2-10 2.3-25.4 2.3-14.8-.1-18.7-.4-25.2-2.2-35.3-9.9-62-37.8-69.5-72.8-2-9.1-2-27.9 0-37 8.3-37.1 35.8-64.8 73.2-73.6 11.3-2.6 36.6-2.1 47.4 1.1 38.7 11.1 66.1 43.1 70 81.4 4.7 46-24.3 87.4-70.5 100.8z"/><path class="st1" d="M171.4 94.8c-35.2 5.3-63.6 30.4-72.7 64.2-2.9 10.9-3.1 29.8-.4 40.3 8.1 31.3 31.9 55.1 63.6 63.6 11.1 2.9 32 3.2 42 .5 19.5-5.2 33.1-13.2 45.6-27 29.8-32.6 29.4-82.1-1.1-114.5-19.5-20.8-49.3-31.3-77-27.1zm54.2 87.1c-3.4 1.9-21.6 12.9-40.5 24.2-18.8 11.4-34.5 20.7-34.7 20.7-.3 0-.5-21.2-.5-47.1 0-28.9.4-46.9.9-46.7.6.1 19 10.2 41 22.3 22 12.1 40 22.2 40 22.5 0 .3-2.8 2.1-6.2 4.1z"/></svg>